<mxfile host="app.diagrams.net" agent="Mozilla/5.0 (Windows NT 10.0; Win64; x64) AppleWebKit/537.36 (KHTML, like Gecko) Chrome/130.0.0.0 Safari/537.36" version="24.8.4">
  <diagram name="Bitbucket-Pipeline" id="05Y_zu9DLisappliimnP">
    <mxGraphModel dx="1050" dy="530" grid="1" gridSize="10" guides="1" tooltips="1" connect="1" arrows="1" fold="1" page="1" pageScale="1" pageWidth="1169" pageHeight="827" background="#ffffff" math="0" shadow="0">
      <root>
        <mxCell id="0" />
        <mxCell id="1" parent="0" />
        <mxCell id="ze9acHEHGeAQpXTy0x80-18" value="SBS Australia" style="fillColor=none;strokeColor=#5a5d87;verticalAlign=top;fontStyle=0;fontColor=#0000FF;html=1;strokeWidth=2;labelBackgroundColor=#FFFFFF;rounded=1;" parent="1" vertex="1">
          <mxGeometry x="30" y="269" width="180" height="144" as="geometry" />
        </mxCell>
        <mxCell id="ze9acHEHGeAQpXTy0x80-15" style="edgeStyle=orthogonalEdgeStyle;rounded=1;orthogonalLoop=1;jettySize=auto;html=1;startArrow=classic;startFill=1;curved=0;" parent="1" source="ze9acHEHGeAQpXTy0x80-3" edge="1">
          <mxGeometry relative="1" as="geometry">
            <mxPoint x="546" y="270" as="targetPoint" />
          </mxGeometry>
        </mxCell>
        <mxCell id="ze9acHEHGeAQpXTy0x80-3" value="Temporary Security&lt;div&gt;&amp;nbsp;Credentials&lt;/div&gt;" style="outlineConnect=0;fontColor=#FF3333;gradientColor=none;fillColor=#DD344C;strokeColor=none;dashed=0;verticalLabelPosition=top;verticalAlign=bottom;align=center;html=1;fontSize=9;fontStyle=0;aspect=fixed;pointerEvents=1;shape=mxgraph.aws4.temporary_security_credential;rounded=1;labelPosition=center;" parent="1" vertex="1">
          <mxGeometry x="390" y="313" width="39.49" height="57" as="geometry" />
        </mxCell>
        <mxCell id="ze9acHEHGeAQpXTy0x80-8" value="Bitbucket Pipeline" style="image;html=1;image=img/lib/atlassian/Bitbucket_Logo.svg;fontSize=9;rounded=1;fontColor=#0000FF;fontStyle=1;" parent="1" vertex="1">
          <mxGeometry x="100" y="318" width="57" height="50" as="geometry" />
        </mxCell>
        <mxCell id="ze9acHEHGeAQpXTy0x80-9" value="" style="image;html=1;image=img/lib/atlassian/Atlassian_Logo.svg;rounded=1;" parent="1" vertex="1">
          <mxGeometry x="30" y="269" width="30" height="30" as="geometry" />
        </mxCell>
        <mxCell id="ze9acHEHGeAQpXTy0x80-19" value="SBS" style="points=[[0,0],[0.25,0],[0.5,0],[0.75,0],[1,0],[1,0.25],[1,0.5],[1,0.75],[1,1],[0.75,1],[0.5,1],[0.25,1],[0,1],[0,0.75],[0,0.5],[0,0.25]];outlineConnect=0;gradientColor=none;fontSize=12;fontStyle=0;container=1;pointerEvents=0;collapsible=0;recursiveResize=0;shape=mxgraph.aws4.group;grIcon=mxgraph.aws4.group_aws_cloud_alt;strokeColor=#FF8000;fillColor=none;verticalAlign=top;align=left;spacingLeft=30;fontColor=#FF8000;dashed=0;labelBackgroundColor=#FFFFFF;rounded=1;" parent="1" vertex="1">
          <mxGeometry x="482" y="118" width="348" height="392" as="geometry" />
        </mxCell>
        <mxCell id="ze9acHEHGeAQpXTy0x80-16" value="&lt;span style=&quot;font-size: 9px;&quot; data-colorparams=&quot;#44852c_null_null&quot; data-colorformula=&quot;RGB(68,133,44)&quot;&gt;&lt;font color=&quot;#ff3333&quot; style=&quot;font-size: 9px;&quot;&gt;AWSEISEIP02&lt;/font&gt;&lt;/span&gt;" style="points=[[0,0],[0.25,0],[0.5,0],[0.75,0],[1,0],[1,0.25],[1,0.5],[1,0.75],[1,1],[0.75,1],[0.5,1],[0.25,1],[0,1],[0,0.75],[0,0.5],[0,0.25]];outlineConnect=0;gradientColor=none;html=1;whiteSpace=wrap;fontSize=9;fontStyle=0;container=1;pointerEvents=0;collapsible=0;recursiveResize=0;shape=mxgraph.aws4.group;grIcon=mxgraph.aws4.group_account;strokeColor=#CD2264;fillColor=none;verticalAlign=top;align=left;spacingLeft=30;fontColor=#CD2264;dashed=0;rounded=1;" parent="ze9acHEHGeAQpXTy0x80-19" vertex="1">
          <mxGeometry x="100" y="120" width="230" height="260" as="geometry" />
        </mxCell>
        <mxCell id="ze9acHEHGeAQpXTy0x80-21" value="&lt;span style=&quot;font-size: 9px;&quot; data-colorparams=&quot;#44852c_null_null&quot; data-colorformula=&quot;RGB(68,133,44)&quot;&gt;&lt;font style=&quot;font-size: 9px;&quot; color=&quot;#b266ff&quot;&gt;&lt;span style=&quot;font-family: &amp;quot;Amazon Ember&amp;quot;, &amp;quot;Helvetica Neue&amp;quot;, Roboto, Arial, sans-serif; background-color: rgb(255, 255, 255); font-size: 9px;&quot;&gt;vpc-0deddfe02af565d38 -&amp;nbsp;&lt;/span&gt;10.2.64.0/18&lt;/font&gt;&lt;/span&gt;" style="points=[[0,0],[0.25,0],[0.5,0],[0.75,0],[1,0],[1,0.25],[1,0.5],[1,0.75],[1,1],[0.75,1],[0.5,1],[0.25,1],[0,1],[0,0.75],[0,0.5],[0,0.25]];outlineConnect=0;gradientColor=none;html=1;whiteSpace=wrap;fontSize=9;fontStyle=0;container=1;pointerEvents=0;collapsible=0;recursiveResize=0;shape=mxgraph.aws4.group;grIcon=mxgraph.aws4.group_vpc2;strokeColor=#8C4FFF;fillColor=none;verticalAlign=top;align=left;spacingLeft=30;fontColor=#AAB7B8;dashed=0;rounded=1;" parent="ze9acHEHGeAQpXTy0x80-16" vertex="1">
          <mxGeometry x="20" y="72" width="200" height="170" as="geometry" />
        </mxCell>
        <mxCell id="ze9acHEHGeAQpXTy0x80-22" value="&lt;span style=&quot;color: rgb(202, 108, 46); font-size: 9px;&quot; data-colorparams=&quot;#ca6c2e_null_null&quot; data-colorformula=&quot;RGB(202,108,46)&quot;&gt;&lt;font style=&quot;font-size: 9px;&quot;&gt;10.2.72.190&lt;/font&gt;&lt;/span&gt;" style="points=[[0,0],[0.25,0],[0.5,0],[0.75,0],[1,0],[1,0.25],[1,0.5],[1,0.75],[1,1],[0.75,1],[0.5,1],[0.25,1],[0,1],[0,0.75],[0,0.5],[0,0.25]];outlineConnect=0;gradientColor=none;html=1;whiteSpace=wrap;fontSize=9;fontStyle=0;container=1;pointerEvents=0;collapsible=0;recursiveResize=0;shape=mxgraph.aws4.group;grIcon=mxgraph.aws4.group_ec2_instance_contents;strokeColor=#D86613;fillColor=none;verticalAlign=top;align=left;spacingLeft=30;fontColor=#D86613;dashed=0;rounded=1;" parent="ze9acHEHGeAQpXTy0x80-21" vertex="1">
          <mxGeometry x="20" y="40" width="150" height="120" as="geometry" />
        </mxCell>
        <mxCell id="ze9acHEHGeAQpXTy0x80-25" value="" style="shape=image;verticalLabelPosition=bottom;verticalAlign=top;imageAspect=0;aspect=fixed;image=data:image/jpeg,/9j/4AAQSkZJRgABAQEAeAB4AAD/4QMMRXhpZgAATU0AKgAAAAgABAE7AAIAAAAWAAABSodpAAQAAAABAAABYJydAAEAAAAsAAAC2OocAAcAAAEMAAAAPgAAAAAc6gAAAAEAAAAAAAAAAAAAAAAAAAAAAAAAAAAAAAAAAAAAAAAAAAAAAAAAAAAAAAAAAAAAAAAAAAAAAAAAAAAAAAAAAAAAAAAAAAAAAAAAAAAAAAAAAAAAAAAAAAAAAAAAAAAAAAAAAAAAAAAAAAAAAAAAAAAAAAAAAAAAAAAAAAAAAAAAAAAAAAAAAAAAAAAAAAAAAAAAAAAAAAAAAAAAAAAAAAAAAAAAAAAAAAAAAAAAAAAAAAAAAAAAAAAAAAAAAAAAAAAAAAAAAAAAAAAAAAAAAAAAAAAAAAAAAAAAAAAAAAAAAAAAAAAAAAAAAAAAAAAAAAAAAAAAAAAAAAAAAAAAAAAAAAAAAAAAVmVua2F0IFN1bmRhcmFtb29ydGh5AAAFkAMAAgAAABQAAAKukAQAAgAAABQAAALCkpEAAgAAAAMyMAAAkpIAAgAAAAMyMAAA6hwABwAAAQwAAAGiAAAAABzqAAAAAQAAAAAAAAAAAAAAAAAAAAAAAAAAAAAAAAAAAAAAAAAAAAAAAAAAAAAAAAAAAAAAAAAAAAAAAAAAAAAAAAAAAAAAAAAAAAAAAAAAAAAAAAAAAAAAAAAAAAAAAAAAAAAAAAAAAAAAAAAAAAAAAAAAAAAAAAAAAAAAAAAAAAAAAAAAAAAAAAAAAAAAAAAAAAAAAAAAAAAAAAAAAAAAAAAAAAAAAAAAAAAAAAAAAAAAAAAAAAAAAAAAAAAAAAAAAAAAAAAAAAAAAAAAAAAAAAAAAAAAAAAAAAAAAAAAAAAAAAAAAAAAAAAAAAAAAAAAAAAAAAAAAAAAAAAAAAAAAAAAAAAAAAAAAAAyMDI0OjExOjA0IDE3OjAzOjI2ADIwMjQ6MTE6MDQgMTc6MDM6MjYAAABWAGUAbgBrAGEAdAAgAFMAdQBuAGQAYQByAGEAbQBvAG8AcgB0AGgAeQAAAP/hBChodHRwOi8vbnMuYWRvYmUuY29tL3hhcC8xLjAvADw/eHBhY2tldCBiZWdpbj0n77u/JyBpZD0nVzVNME1wQ2VoaUh6cmVTek5UY3prYzlkJz8+DQo8eDp4bXBtZXRhIHhtbG5zOng9ImFkb2JlOm5zOm1ldGEvIj48cmRmOlJERiB4bWxuczpyZGY9Imh0dHA6Ly93d3cudzMub3JnLzE5OTkvMDIvMjItcmRmLXN5bnRheC1ucyMiPjxyZGY6RGVzY3JpcHRpb24gcmRmOmFib3V0PSJ1dWlkOmZhZjViZGQ1LWJhM2QtMTFkYS1hZDMxLWQzM2Q3NTE4MmYxYiIgeG1sbnM6ZGM9Imh0dHA6Ly9wdXJsLm9yZy9kYy9lbGVtZW50cy8xLjEvIi8+PHJkZjpEZXNjcmlwdGlvbiByZGY6YWJvdXQ9InV1aWQ6ZmFmNWJkZDUtYmEzZC0xMWRhLWFkMzEtZDMzZDc1MTgyZjFiIiB4bWxuczp4bXA9Imh0dHA6Ly9ucy5hZG9iZS5jb20veGFwLzEuMC8iPjx4bXA6Q3JlYXRlRGF0ZT4yMDI0LTExLTA0VDE3OjAzOjI2LjE5OTwveG1wOkNyZWF0ZURhdGU+PC9yZGY6RGVzY3JpcHRpb24+PHJkZjpEZXNjcmlwdGlvbiByZGY6YWJvdXQ9InV1aWQ6ZmFmNWJkZDUtYmEzZC0xMWRhLWFkMzEtZDMzZDc1MTgyZjFiIiB4bWxuczpkYz0iaHR0cDovL3B1cmwub3JnL2RjL2VsZW1lbnRzLzEuMS8iPjxkYzpjcmVhdG9yPjxyZGY6U2VxIHhtbG5zOnJkZj0iaHR0cDovL3d3dy53My5vcmcvMTk5OS8wMi8yMi1yZGYtc3ludGF4LW5zIyI+PHJkZjpsaT5WZW5rYXQgU3VuZGFyYW1vb3J0aHk8L3JkZjpsaT48L3JkZjpTZXE+DQoJCQk8L2RjOmNyZWF0b3I+PC9yZGY6RGVzY3JpcHRpb24+PC9yZGY6UkRGPjwveDp4bXBtZXRhPg0KICAgICAgICAgICAgICAgICAgICAgICAgICAgICAgICAgICAgICAgICAgICAgICAgICAgICAgICAgICAgICAgICAgICAgICAgICAgICAgICAgICAgICAgICAgICAgICAgICAgIAogICAgICAgICAgICAgICAgICAgICAgICAgICAgICAgICAgICAgICAgICAgICAgICAgICAgICAgICAgICAgICAgICAgICAgICAgICAgICAgICAgICAgICAgICAgICAgICAgICAgCiAgICAgICAgICAgICAgICAgICAgICAgICAgICAgICAgICAgICAgICAgICAgICAgICAgICAgIDw/eHBhY2tldCBlbmQ9J3cnPz7/2wBDAAcFBQYFBAcGBQYIBwcIChELCgkJChUPEAwRGBUaGRgVGBcbHichGx0lHRcYIi4iJSgpKywrGiAvMy8qMicqKyr/2wBDAQcICAoJChQLCxQqHBgcKioqKioqKioqKioqKioqKioqKioqKioqKioqKioqKioqKioqKioqKioqKioqKioqKir/wAARCAA9AM8DASIAAhEBAxEB/8QAHwAAAQUBAQEBAQEAAAAAAAAAAAECAwQFBgcICQoL/8QAtRAAAgEDAwIEAwUFBAQAAAF9AQIDAAQRBRIhMUEGE1FhByJxFDKBkaEII0KxwRVS0fAkM2JyggkKFhcYGRolJicoKSo0NTY3ODk6Q0RFRkdISUpTVFVWV1hZWmNkZWZnaGlqc3R1dnd4eXqDhIWGh4iJipKTlJWWl5iZmqKjpKWmp6ipqrKztLW2t7i5usLDxMXGx8jJytLT1NXW19jZ2uHi4+Tl5ufo6erx8vP09fb3+Pn6/8QAHwEAAwEBAQEBAQEBAQAAAAAAAAECAwQFBgcICQoL/8QAtREAAgECBAQDBAcFBAQAAQJ3AAECAxEEBSExBhJBUQdhcRMiMoEIFEKRobHBCSMzUvAVYnLRChYkNOEl8RcYGRomJygpKjU2Nzg5OkNERUZHSElKU1RVVldYWVpjZGVmZ2hpanN0dXZ3eHl6goOEhYaHiImKkpOUlZaXmJmaoqOkpaanqKmqsrO0tba3uLm6wsPExcbHyMnK0tPU1dbX2Nna4uPk5ebn6Onq8vP09fb3+Pn6/9oADAMBAAIRAxEAPwD6RooooAKKyPEujnXNI+yLqdxph8wOJ7d9p4zwfUc9PYVyJ8L+OdAXzdC8Tf2qiDP2a+U/OPQEk/zWumlRhUjrNJ9nf8znqVZwlpBteVvyPRaK5Lwt46j1m+fSNXtG0vWYvvW0nSTHdSfzx6dM9a62s6tKdKXLNamlOpGpHmiwoqlq+s6doGmyahrV7DZWkX3pZm2j2HufYcmuX0H4veCPEusLpela2jXchxEk0LxCU+il1AJ9upqFGTV0jWzep2tFFFSIKKKKACiiigAooooAKK5e/wDiP4V068a2uNWRpFOG8qN5FX8VBFb2nanZavZrd6ZdR3MDdHjbPPofQ+xrWVGrCPNKLS9DONWnN8sZJstUUUVkaBRWVofiOx8QNerYiVXsbhreZZFAO4HGRgnIOK1aqUZQfLJWZMZKSvHYKKKKkoKKKKACisrR/Emn64l69g7kWUzQzb0I5HceoqLT/Feman4Zn122eT7FAsjSbkwwCDJ4+nNaujUV7x2/XYzVWD2f9IZ4u0nRtZ0QWviG6Fra+arLKZxFh8EDk8dzwa4uXwlrnhC1/tTwJrMuoWSDe1jMQ4kXvtxw34AH0Ndt5Oi+OfDltNcW/wBrsZyJY1kypDDI7HgjkVyugWFx4N+JR0GxM0mjajbtcRRvlhC4znn8Mf8AAlzzXoYapKFOUL6q7cWtHbf5nFXhGU4zto7JST1Xb5DNTjtviP4Mi17RVNvren/NHsPzpIvJjz3B6qfcdORXU+CvEY8UeFrfUGAE4zFcKOgkXr+eQfxrnvCtpJovxX8RadBEyWNzCt2nynaGJHTsOXcfh7U74eW8mneJvFuneU8dtFeiSEFSFAYt0/4CFq68YOlKK2jaUfSW6/EmjKSqRk93dP1WzMv45eHNX1rR9FvtJ09tWh0m+FzdaavJuE46L/F0IwAThjxWM+u/C34hX+m2GtWVx4d1q3mX7NDPbm1lDdlDqNpGcYBI5xgV3nxEv/F+k6Ta6j4JtItQe3m3Xliybnni/wBjvkeg5574xXl3jbV9Q+MsGmaBongzVdOu47pZLjUtRt/LWzUAhgG79c44J2jAJ6cNO7ir/ffY9mOqOv8AHPizxJqHxEsPAXge6i066kt/tV/qMkQkMEfPCqeM4/MsvI5NY+vat43+EV/pmpa74k/4Sbw7d3It7sTWixSwEjO5SCT0DEc44xjkGrnjfSdc8IfFG0+IOhaXPrdm9p9j1K1txmZVH8agdeAp6fwnOM5GT4o1DV/je2m+H9H8OappOiR3S3GoahqUIiICgjagyQT8x6EnOMgDJpxSstrdQVtOxoeJ/EHjK5+ObeEvC+rpZWt5pqO0k0IkW16lpUHdsDAGcfNz0yI5NU8Z/Db4jeHNL17xI3iPRNem+yq09usckUhKqORk8F1PXBGeOM1oLpl4n7UC3y2VwLFdF8sXHlN5YP8Ad3Yxn2p3xf069vvGXw8lsrO4uI7fWleZ4omcRL5kXLEDgcHk+lJNXUelg0ul5EHiPxJ4s8X/ABTufBPgrU00S00yASahqPkiRyxAO1Qf94DAwchucCue8c6v8Sfh/eaPpt14lXVNN1G+jEeoC2WKdcEboWxkYOQc8k4PI5Fa3iC31v4a/F++8ZWOj3Ws6BrUCpex2Sb5bdwAN236rnJ4+YjI4rnfiRrviP4g3nh240zwnrFlodpqEbB7u2IlmkJ+9sXOEUA85x81XBK6slYcVqux1fxP8U+LtK+KHhzRfB13Gj6pbPGYbhQ0W4kgSNxn5fvcf3eh6G94rPiHw18LoNO1jWjqep3135E18qeX8jbmwAOgwNv0zUPjPTr6f9oPwRewWdxJawQSiWdImKRnD/eYDA6967bxr4aHirwzLp6Osc6sJbd26BxnGfYgkfjVUJwhVpue3U5MUpSoOMN2ixo/hXSNF0qOxtbGBlVAsjvGC0p7lieua4+O1j8JfGK0tNJXybDWrdjLbJ91HAYggduV/DLVatPHer6TaR2XiPwxqr38Y2ebaRCSOcjuDnqfbNU/BbTeM/Gtz4rv/LhFiptbayDZeHIPLfgW+pJ9K6YU61NVJ1neLT63u3t+J58p0puEKSs7rpayW/4Gz4L1q/1LxL4qs72cyw2N7ttwQPkUs4xn0+UUkut38Xxgg0hZz9hl0/zGhIGAwLHcO+eKxFuNQ8BeOtaup9IvL/TNXkEyzWce8o2ScY6dWYYJHY0zRp9V1j4wQaveaPd2Fq1myQ+fGQQgBxuPQEnPH0+tU6MXKdVJcrhptvZfjclVZKMabb5ubXfa7/CxneEbbxBqPiHxHZ6HfpplqNQd7m78oSOTuYKig8epJ/yeg07VvEHhjxvaaB4jv11Sy1FD9luzEEdXHY49+O/UHPUVi+GNS1fwrrviG5udB1C6024vXLNbwkuhDNhgpxuUg9fatOyXUvHPj6w1mXTbjT9H0oEw/al2vK59vrjpkfL1ya3rrmnJzS5OXfS97aa73v07GVF2hFRb577a2tfXytYZeeJdS8R+LNR06x8Q23h/TdOfymlfZ5k7gkHG4jjIPQ+nXNWfDXibUbPxsvhrVdWttbhuYjJa3sG3cCASVbbx0U+p6c81i6l4fg8M+LdTu9a8Ny65pOoSmaKeBN727EklSMjjJ746D3FbPguxivfET6lZeEodH06BT9nuJ0Zbh2IxwM4AwTnr6ZPaakaKotpe7y6fDvbvve+6Kpyquqk3719d9vTa1j0OiiivAPZPOvBjDRPiR4l0K4wv2uT7Xb5/iUkkgevDj/vk1X8GvD4c1zWPA+tYSC5kaSzMhwsyOMFc+6gfiGHWtrx54Yvb97XXvDp2a1ppygH/AC2T+79eTx3yR3rLS88N/FCwjstWB07W7fK+WTsljYddufvDP8J5Ht1r3FONWDqPZpKVt4tbP0/4J5Di6c1Bbpvlvs0916i6Xo3jTwXd/wBnaHDb6vorS7o/OkCPCpPPUj36ZHfHOK9GrgbLQfiBo9xFBaa/ZX9gjKM3iHzNueexPT/arvq4cZLmkpXi33V9fXzOzCx5U1ZryfT0CiiiuE6yK6ureytnuLyaOCGMZeSRgqqPcmorTU7G/szd2V5BcWwzmWOQMox1yR0xWP40S1bSrWS9mltlgvI5Y7lIhIsDjOGkU/wc4J7ZFcxezTax4d8QfYIra4cXFu1xe2MbtFeICpfCZOSqj5gGORxmu2lh1UgpX6/LdL+vy6nLUruEmrdP0/r/AD6Hd2Gt6Xqkjx6bqVpdvHyywTK5A9cA9KQ67pIZ1Op2eURpH/fr8qq21mPPADcfWuQsSuqeJtHkttcs797Qs2dO03YI49pBSR/MIQHP3SM5xxWh4M0uyuPC96stvGTeXV2k7bRudTK64J+gp1KFOC5m30/G/dLt2JhWnN2SXX9Ozfc6ma6t7dEeeeOJZHVEZ3ADM3AAz1J7Cqtxr2kWl8LO61SzhuWxiGSdVfnpwTmuS0FrjVdV07R73c58N7zdMRxJKMxwH8U3P+VZMW+20zVdO1bVrC3uZricz2U+mGWe4y7FWX94DJkY2kDjgdquOEjdxk/6fXZ9NfmiZYmVrpf1+Hp8mej3mrafp5Iv763tiF37ZZQp25xnB7ZIH1q3XE6fpqf8Jno8OoKbqW10Hh7iMBt4kQbiMnDYJ7nqea7auWtTjCyTudNOcp3bQUUUVgahVKz0ewsNQvL2ztliuL4q1w6/xlc4OOnc/XNXaKak0ml1E0m7sKKKKQwooooAKKKKACiiigArmPEvgDRPEzme5ha2vP8An6tztc/Xs348+9dPRWlOrOlLmg7MidOFSPLNXRwFt4E8UafcQiz8bXTW0bg+XNGWwoPTliDXf0UVdavOs052+5L8iadGFLSP5t/mFFFFYGoUABQAowB0AoooAQADOABk5OKWiigApMAsCQMjoaWigAooooAKKKKACiiigAooooAKKKKACiiigAooooA//9k=;rounded=1;" parent="ze9acHEHGeAQpXTy0x80-22" vertex="1">
          <mxGeometry x="72" y="55" width="67.87" height="27" as="geometry" />
        </mxCell>
        <mxCell id="ze9acHEHGeAQpXTy0x80-30" value="" style="edgeStyle=orthogonalEdgeStyle;rounded=1;orthogonalLoop=1;jettySize=auto;html=1;fontSize=9;startArrow=classicThin;startFill=1;endArrow=classicThin;endFill=1;endSize=2;startSize=2;strokeWidth=1;" parent="ze9acHEHGeAQpXTy0x80-22" source="ze9acHEHGeAQpXTy0x80-26" target="ze9acHEHGeAQpXTy0x80-25" edge="1">
          <mxGeometry relative="1" as="geometry" />
        </mxCell>
        <mxCell id="ze9acHEHGeAQpXTy0x80-26" value="Bitbucket&amp;nbsp;&lt;div&gt;Runner&lt;/div&gt;" style="image;html=1;image=img/lib/atlassian/Bitbucket_Logo.svg;fontSize=8;rounded=1;fontColor=#0000FF;fontStyle=1;" parent="ze9acHEHGeAQpXTy0x80-22" vertex="1">
          <mxGeometry x="19" y="55" width="30" height="27" as="geometry" />
        </mxCell>
        <mxCell id="ze9acHEHGeAQpXTy0x80-23" style="edgeStyle=orthogonalEdgeStyle;rounded=1;orthogonalLoop=1;jettySize=auto;html=1;exitX=0.5;exitY=1;exitDx=0;exitDy=0;" parent="ze9acHEHGeAQpXTy0x80-21" source="ze9acHEHGeAQpXTy0x80-22" target="ze9acHEHGeAQpXTy0x80-22" edge="1">
          <mxGeometry relative="1" as="geometry" />
        </mxCell>
        <mxCell id="j8eNsITq6gDNv-z810VY-1" value="Amazon ECR" style="outlineConnect=0;fontColor=#3e3323;gradientColor=none;strokeColor=#ffffff;fillColor=#232F3E;dashed=0;verticalLabelPosition=middle;verticalAlign=bottom;align=center;html=1;whiteSpace=wrap;fontSize=8;fontStyle=1;spacing=3;shape=mxgraph.aws4.productIcon;prIcon=mxgraph.aws4.ecr;fontFamily=Helvetica;" vertex="1" parent="ze9acHEHGeAQpXTy0x80-16">
          <mxGeometry x="108" y="12" width="40" height="60" as="geometry" />
        </mxCell>
        <mxCell id="ze9acHEHGeAQpXTy0x80-4" value="AWS Role" style="outlineConnect=0;fontColor=#FF3333;gradientColor=none;fillColor=#DD344C;strokeColor=none;dashed=0;verticalLabelPosition=bottom;verticalAlign=top;align=center;html=1;fontSize=9;fontStyle=0;aspect=fixed;pointerEvents=1;shape=mxgraph.aws4.role;rounded=1;" parent="ze9acHEHGeAQpXTy0x80-19" vertex="1">
          <mxGeometry x="46.82" y="34" width="35.45" height="16" as="geometry" />
        </mxCell>
        <mxCell id="ze9acHEHGeAQpXTy0x80-5" value="Permissions" style="outlineConnect=0;fontColor=#FF3333;gradientColor=none;fillColor=#DD344C;strokeColor=none;dashed=0;verticalLabelPosition=bottom;verticalAlign=top;align=center;html=1;fontSize=9;fontStyle=0;aspect=fixed;pointerEvents=1;shape=mxgraph.aws4.permissions;rounded=1;" parent="ze9acHEHGeAQpXTy0x80-19" vertex="1">
          <mxGeometry x="168" y="26.5" width="27.38" height="31" as="geometry" />
        </mxCell>
        <mxCell id="ze9acHEHGeAQpXTy0x80-6" style="edgeStyle=orthogonalEdgeStyle;rounded=1;orthogonalLoop=1;jettySize=auto;html=1;curved=0;" parent="ze9acHEHGeAQpXTy0x80-19" source="ze9acHEHGeAQpXTy0x80-5" target="ze9acHEHGeAQpXTy0x80-4" edge="1">
          <mxGeometry relative="1" as="geometry" />
        </mxCell>
        <mxCell id="ze9acHEHGeAQpXTy0x80-7" style="edgeStyle=orthogonalEdgeStyle;rounded=1;orthogonalLoop=1;jettySize=auto;html=1;entryX=0.5;entryY=0;entryDx=0;entryDy=0;entryPerimeter=0;curved=0;" parent="ze9acHEHGeAQpXTy0x80-19" edge="1">
          <mxGeometry relative="1" as="geometry">
            <mxPoint x="64" y="72" as="sourcePoint" />
            <mxPoint x="64.20499999999993" y="104" as="targetPoint" />
            <Array as="points">
              <mxPoint x="64" y="72" />
            </Array>
          </mxGeometry>
        </mxCell>
        <mxCell id="KLckjNALMD5EA0p0zTGz-1" value="IAM" style="points=[[0,0,0],[0.25,0,0],[0.5,0,0],[0.75,0,0],[1,0,0],[0,1,0],[0.25,1,0],[0.5,1,0],[0.75,1,0],[1,1,0],[0,0.25,0],[0,0.5,0],[0,0.75,0],[1,0.25,0],[1,0.5,0],[1,0.75,0]];outlineConnect=0;fontColor=#232F3E;fillColor=#DD344C;strokeColor=#ffffff;dashed=0;verticalLabelPosition=bottom;verticalAlign=top;align=center;html=1;fontSize=9;fontStyle=0;aspect=fixed;shape=mxgraph.aws4.resourceIcon;resIcon=mxgraph.aws4.identity_and_access_management;rounded=1;" parent="ze9acHEHGeAQpXTy0x80-19" vertex="1">
          <mxGeometry x="51.27" y="107" width="28" height="28" as="geometry" />
        </mxCell>
        <mxCell id="ze9acHEHGeAQpXTy0x80-35" value="" style="edgeStyle=orthogonalEdgeStyle;rounded=0;orthogonalLoop=1;jettySize=auto;html=1;entryX=1;entryY=0.5;entryDx=0;entryDy=0;startArrow=classic;startFill=1;curved=0;spacing=0;endArrow=classic;endFill=1;" parent="1" source="ze9acHEHGeAQpXTy0x80-33" target="ze9acHEHGeAQpXTy0x80-18" edge="1">
          <mxGeometry relative="1" as="geometry" />
        </mxCell>
        <mxCell id="ze9acHEHGeAQpXTy0x80-36" style="edgeStyle=orthogonalEdgeStyle;rounded=1;orthogonalLoop=1;jettySize=auto;html=1;startArrow=classic;startFill=1;curved=0;" parent="1" source="ze9acHEHGeAQpXTy0x80-33" target="ze9acHEHGeAQpXTy0x80-3" edge="1">
          <mxGeometry relative="1" as="geometry" />
        </mxCell>
        <mxCell id="ze9acHEHGeAQpXTy0x80-37" style="edgeStyle=orthogonalEdgeStyle;rounded=1;orthogonalLoop=1;jettySize=auto;html=1;startArrow=classic;startFill=1;curved=0;endArrow=classic;endFill=1;exitX=0.5;exitY=1;exitDx=0;exitDy=0;entryX=0;entryY=0.5;entryDx=0;entryDy=0;" parent="1" target="ze9acHEHGeAQpXTy0x80-26" edge="1" source="ze9acHEHGeAQpXTy0x80-33">
          <mxGeometry relative="1" as="geometry">
            <mxPoint x="290" y="550" as="sourcePoint" />
            <Array as="points">
              <mxPoint x="287" y="420" />
              <mxPoint x="630" y="420" />
              <mxPoint x="630" y="419" />
            </Array>
            <mxPoint x="630" y="419" as="targetPoint" />
          </mxGeometry>
        </mxCell>
        <mxCell id="j8eNsITq6gDNv-z810VY-2" style="edgeStyle=orthogonalEdgeStyle;rounded=1;orthogonalLoop=1;jettySize=auto;html=1;curved=0;" edge="1" parent="1" target="j8eNsITq6gDNv-z810VY-1">
          <mxGeometry relative="1" as="geometry">
            <mxPoint x="300" y="353" as="sourcePoint" />
            <Array as="points">
              <mxPoint x="300" y="370" />
              <mxPoint x="590" y="370" />
              <mxPoint x="590" y="280" />
            </Array>
          </mxGeometry>
        </mxCell>
        <mxCell id="ze9acHEHGeAQpXTy0x80-33" value="OIDC" style="shape=image;verticalLabelPosition=bottom;verticalAlign=top;imageAspect=0;aspect=fixed;image=data:image/png,iVBORw0KGgoAAAANSUhEUgAAAQAAAAEACAMAAABrrFhUAAAABGdBTUEAALGPC/xhBQAAAtBQTFRFAAAA//////+A/6pV/7+A/5lm/6pV/5JJ/59g/45V/6JG/5lN/51O/5VV/5lE/5JJ/5ZL/49Q/5RD/45H/5JJ/4xN/5dG/5BD/5VK/49H/5NF/45C/41G/5RC95NG949I+JJC+I9E+JFF+I5H+I1D+Y9E+YxG+ZJD+Y5B+ZFG+Y5E+ZBD+o1B+o9F+o1E+o9C+oxB+pBD+o5F+pBB+o5C+49D+o1E+49B+41C+4xE+5BC+45B949E941D949C941B+I9E+IxD+I5C+IxB+I9C+I5D+I9B+I1B+I1D+Y5B+I1B+YxD+Y9B+Y1B+Y9D+Y1C+Y1A+Y5D+YxC+Y5B+YxA+o9C+Y1D+o5A+o1B945C941C941B941C94xC+I1A+IxB+I5C+I1C+I5B+I1A+I5C+IxC+I1B+IxA+I5B+I1C+I5A+I1B+I5B+I1C+Y1A+YxB+Y1B+YxC+Y1A+Y5C+Y1B+Y5B+Y1A941C94xB941B945B941C945A941B+I1C+I1B+I1A+IxB+IxC+I1A+IxB+I5C+I1B+I1B+I1A+I1B+IxB+I1B+IxA+I1B+IxB+I1B+I1A+Y1B+I1B+Y1A+YxB941B94xB94xB941B941B941B94xA941B94xB+I1B+IxA+I1B+IxB+I1A+I1A+I1B+I1A+IxA+I1B+IxB+I1A+IxA+I1B+I1A+IxA+I1B+IxB+I1A+IxA941B94xB941A941A941B941A94xA941B94xB941A94xA+I1B+IxB+I1A+IxA+I1B+IxB+I1A+IxA+I1B+IxB+I1A+I1A+I1B+IxB+I1A+IxA+I1B+IxB+I1A+IxA941B94xB941A94xA941B94xB941A94xA941B94xB941A941A941B94xB+I1A+IxA+I1B+IxB+I1A+I1B+IxB+I1A+IxA+I1B+IxB+I1A+IxA+I1B+IxB+I1A94xA8BXJ6QAAAO90Uk5TAAECAwQFBgcICQsKDQwPDhEQExIVFBYXGBkaGx0fISAjIiUkJikoKissLS4vMDEyMzU0NzY5ODs6PD4/QEFCQ0RFRkdJSEtKTE9OUFJTVFVXWFlaW11cX15hYGJlZGdmaGlqa2xtbm9xcHNydXR3dnl4e3x9fn+AgYKFhIeGiImLioyPjpCRkpOUlZaXmJmam52cn56hoKKkpaanqKmqq6ytrq+ws7K1tLe2ubq7vL2+v8DBwsPEx8bJyMvKzczOz9DR0tPU1dbX2djb2t3c397h4OLj5OXm5+jp6uvt7O/u8fDz9fT29/j5+vv8/f7/7a+oAAAMQUlEQVR42uXd/Vtb9RnH8U9CaIMPgIKl4LQaHF2VosKYYxaFwZyKqME5qWyoY8yWskXns6jAXJ06p661q2V2Ws1wU+uYlIG6CUWiVikM2loMarWxKQkkn39hl3b28eThnJxzcr7J6y/gev/EdXJ/7xt6SyuobmhtX/NCn2tsh3uPd27Ou8e9Y8zV98Ka9taG6oI0JCzLYntbV/8UI5jq72qzL7YgoVjLWtYNzVCGmaF1LWVWJILsmo4BHxXxDXTUZENkqeWdI4zRSGd5KoSU1+j0UBUeZ2MeBJPTtCVIFQW3NOVAGFmNPQGqLtDTmAURLNuwnxrZv2EZDG6BY5SaGnUsgHEVrvdTc/71hTCmqs3UyeYqGE5K/dvU0dv1KTASc9026mxbnRlGYap1MQ5ctSYYQuUQ42SoEvFn62YcddsQXxkdPsaVryMDcbTczbhzL0e85PfQEHryEQ8Wh5cG4XVYoLuiQRrIYBF0ttJPQ/GvhJ4ynTQcZyZ0UzJJA5osgU5W+WlI/lXQQ1Y3Das7C5ornaCBTZRCW6bWWRrabKsJGrJuouFtskIz6b0UQG86NJI7TCEM50ITtnEKYtwGDRRPUxjTxVBdhYcC8VRAZXYfheKzQ1XNQQom2AwV3UkB3QnVNFNIzVCJPUghBe1QRYWPgvJVQAXFHgrLU4yY2aYpsGkbYpQ7TqGN5yIm6cMU3HA6YmDtpfB6rVDM9DwTwCYTlHIwIbRCodJZJoTZUiiSNcEEMZEFBUzdTBjdUKCFCaQFspX4mUD8JZApc5IJZTIT8jiZYJyQZQUTzkrIcK6fcbJ3KzXiL0LULIOMj09uT7+LWhm0GP1f4OlbTwC0C0AHopTvZRxMtRwPaBrAm4/o9FB/u36RBmgcgD2ISgN1N3HTfED7AFyOKGS4qbPtP00FdAngzkBkHdTX6HUWQKcA7EBENh/19O41KYB+AXw2RNJNHQ1fZQb0DMBuRFBJ/fynxgToHICVCMs0RL28fgkA/QMMmRBOLXVTgLgEYC3CMLsSP4DLjNDqmPgBWIeQUrYlQ4BtKQilnskQgPUIZSQ5AryNEKqYHAFYBWmbkyXAZkgqZLIEYCGkrE+eAOshIcefPAH8OTiWg8kTgA4cazSZAoziGMuYTAG4DEfbkFwBNuAoWTPJFWB/Fo50I5MrAG/EkXqSLUAPjrAwkGwBAgtxuCYmWwA24XBbki/AFhwmL5h8AYJ5OKSRyReAjTjEmYwBnDgo1ZOMATyp+Fo5kzEAy/G1zuQM0ImvjSRngBH8XzaTMwCzcUBNsgaowQEdyRqgAwcMUGezBgkwgK9YfdTN7tceb7n0LMsX4QO02X648tHNO6k1nxVfKqMuPn7p7ksW4IAIAe7CV075/i3PbqeWyvR6GzP5pP10HBI5wCELrnrEFdT2Jc06aupz589sACA7wCHZV679mFpYhy8NUTsfP36RBYDSAIeYL2h/j6obAgDLDDXy6ZOVFgBKAkg6u3MX1TVjAbCYmgi8dLkFgJoBAHPFun0M4QsqsBiAnRpw33c6AOUBQjtp1XZKmGlfSgXsANqourfs8wCNAgDmS1/h0Z4/E8dTgTYAXVTZQDUAtQJIO9cZ5GG2lgPA55SvC0A/VfXaxYDmAYClzx9M4L7BjC9to3z9AD6iiraWA7oEAIr+edR6+V7KNwWkUT0fN6ZAtwDAFdtJZz6+9gwVSEMB1TK7+iRAzwCY33IRDllNBQpQTZUMnY1oZewPH+BuKHErFahGA1Ux15aKqCz60aNbAwwfIPjuU42FKZDpOirQAAfV8H4JIjOfv/LZD6P+IrTvtbvPM0GGKirQinaqYG0aIir6zS7Zn8R2PVY9H9EqpALtWMOYzd2MSPJvf0/hN0HPxgoTorKACqyBk7H65GKEl3Xz6zF9FB1zZCMK5jnK50QfY/TOmQhr0UP7Yv4q7PvzdxDZbsrXh3cYm6FTEM5ZXXPqfBb/21JEMkj5XBhjTP6diTAWPjZLqhOAwY0FCO9FyjeGnYzFQDpCS71tn6o/jOxZirD+SPl2ws0YvHkiQvvuO6SKAQJP5iC8eymfG3up3K48hGR9OEg1A/QUIpKfU7498FKxfUUI6aytpIoBPqhBZFdSPi/mqFTgMoRk91DFAHt/OQ9RKKN8czEEaENIvybVCzD3WDaicoaiAF4qNDwPIVieoIoBXlmCKB1H+bzYQ2X8SxGC+RmqGODhkxA1D2XbAzeVuQMhmNZSvQAHPg7ccLYZ0RilbG7soCKjFoSwWosJEc8/7r00G5FsoWw7MEZFrkEI12k3IjP2dNN5qQjjL5RtDC51txCcu1/bGSFvX+cVeQjhIcrmQh+VuALSrB/oMSS1Y+OK0vk41i2UrQ9OKuAyQdr9uk2J+d5YbV+EIy2nbC9gjZqL6Zb49R2Tm3rhVxceh4OqKdsatFO+wKmQ1h2HOcG5wd/X2/CVpZStHa2U71VIOycYr0HJT1+8vSIDCylbKxoo3/WQ9kxcJ0UDrrWUrQHVlO80SEr3qRJAV9UooGwfQdr1FC9AAdLU21H8ooAB0oApynULJJn2ihdgStGIzOWQZKN4AfoVDUldAElXCxigS9GY3DchaaWAAdoUDUrmQNI9AgawKxqVTYWk3wkYYLGiYekMSOoUL8CMRdG4/OmQdKt4AYaUPZgohqSfiBdgnbInM1WQdJF4AVqU/aJUD0knBIQLUKbs2dzDkOYSLYDPquzh5FuQtlq0AAMKn87OHg9J54v6dLaGMl0Iae8L+ng6mzLdB2krBH0+jxHK82EKJKXtFnOBAjop0w8grVnQFRrllGkjpM1/T8wlKvM8lGfmFEgrmRNyjQ6clOm3COEBIRcpoZEyzZwGafP+JdQqLeXL1P6EELLHRVqmpny4JLAEISz5XMB1emiiXP0pCKFkr4ALFXMClOtOhFL8mQABAjmxLlWd/TZCWbpLuKWqaKRso8chlIX9hg/QiCNl7adsz5kRyvynRFusjA2U70GEVveZWKu1sUztU7anvizWcnWMUr5ALcKo3y3Sen04qIAvbIETH/AJcmBB+YmNuQaEc8baWSMG8C9Q78hKcBXCOv0JvyBHVlBIZe41IaxT79ktxpkdbKYyfz0J4VmufHVOgENLqKJC25cikpPrn/MY/tQW3qZC+5cjsvnVj31o7GNrqKdiT5+MKJiK73r5s7gHuFaTg4vTVyM6prN+/OBL/w0Y8uAi6hgDZx6iZz37+HgFqNPs6Ore5lTIYMSjq6hlTMauMn6AWm0PL7/+PYMHGDJpfXr7xTIo942HvqC2KnU4vv5GrRmKFDzlp8a69Tm//8FNaZCt+LkAteazIaIOqmHvH0ogS/kr1EEHIstwUx3vOnIRJdNlb1AP7gxEYTnVMvf3xjxEZrn2HepjOaLSQ/UE37ztHIRlbRqnTnoQnXyv2rvl6xchhPRb3dSLNx9RclB1O7tuWpKCoy24fy/140C0LIPUwv631q6qzMFBix7xUkeDFkStyE/NTPdv7Gi+rOjkb62fpZ78RZBhJRPOSsjiZIJxQp7MSSaUyUzIVOJnAvGXQLZVTCCroEA3E0Y3lMiaYIKYyIIipbNMCLOlUKiVCaEVSpk2MQFsMkExay+F12tFDNKHKbjhdMQkd5xCG89FjGzTFNi0DTEr9lBYnmKooMJHQfkqoAp7kEIK2qGSZgqpGaq5kwK6AypqDlIwwWaoyu6jUHx2qKzCQ4F4KqC64mkKY7oYGrCNUxDjNmgid5hCGM6FRtJ7KYDedGjGuomGt8kKDZkcszS0WYcJ2iqdoIFNlEJzWd00rO4s6MDU4qch+VtM0EfJJA1osgS6yXTScJyZ0NMKPw3FvwI6KxqkgQwWQXcWh5cG4XVYEA/5PTSEnnzES4ObcedejjjK6PAxXg5e348vWzfjqNuG+KscYpwMVcIQTLUuxoGr1gSjMNdto8621ZlhJCn1I9TRSH0KDKdqM3WyuQrGVLjeT8351xfCuHIco9TUqCMHBrdswww1MrNhGUSQdWNPgKoL9NyYBWEsbNoSpIqCW5oWQjB5jU4PVeFxNuZBSPPKO0cYo5HO8lSILLumY8BHRXwDHTXZSATWspZ1QzOUYWZoXUuZFQnFstje1tU/xQim+rva7IstSFhpBdUNre1rnH2usZ3uPd65Oe8e984xV59zTXtrQ3VBmt5/z/8AmrN/9iHYEyoAAAAASUVORK5CYII=;fontSize=9;rounded=1;fontColor=#FF3399;fontStyle=1;" parent="1" vertex="1">
          <mxGeometry x="260" y="318" width="54.83" height="47" as="geometry" />
        </mxCell>
      </root>
    </mxGraphModel>
  </diagram>
</mxfile>
